# xmcd
#
# Track frame offsets:
#   150
#   16379
#   29628
#   42289
#   56102
#   73216
#   82082
#   101774
#   114206
#   128765
#   142964
#   156182
#   171274
#   186168
#   200973
#   214685
#   229989
#   247486
#   263905
#
# Disc length: 3758 seconds
#
# Revision: 0
# Processed by: cddbd v1.4PL0 Copyright (c) Steve Scherf et al.
# Submitted via: uFREEDB 1.6.0
#
DISCID=280eac13
DTITLE=Varios Artistas - Grandes baladas del ayer
DYEAR=1995
DGENRE=Country
TTITLE0=Aquel inmenso amor
TTITLE1=ayudame a escribir
TTITLE2=Como quisiera decirte
TTITLE3=Como sufro
TTITLE4=dejame llorar
TTITLE5=Dos almas
TTITLE6=Hipocresia
TTITLE7=Hoy daria yo la vida
TTITLE8=Juguete caro
TTITLE9=Mi plegaria
TTITLE10=Mis lagrimas
TTITLE11=Norma
TTITLE12=Pobreza fatal
TTITLE13=Que seas feliz
TTITLE14=Recuerdos de una noche
TTITLE15=Sufrir
TTITLE16=Te juro que te amo
TTITLE17=Viviras
TTITLE18=Y volvere
EXTD=
EXTT0=
EXTT1=
EXTT2=
EXTT3=
EXTT4=
EXTT5=
EXTT6=
EXTT7=
EXTT8=
EXTT9=
EXTT10=
EXTT11=
EXTT12=
EXTT13=
EXTT14=
EXTT15=
EXTT16=
EXTT17=
EXTT18=
PLAYORDER=
